<svg width="140" height="37" viewBox="0 0 140 37" fill="none" xmlns="http://www.w3.org/2000/svg">
<path d="M106.029 35.3147H106.019C105.81 34.586 104.737 31.9264 103.828 29.6411H102.148V36.7073H103.221V33.912C103.221 32.7158 103.179 31.2503 103.118 30.4386H103.128C103.513 31.6065 104.713 34.6569 105.446 36.7073H106.466C107.433 34.2379 108.524 31.5559 108.875 30.4326H108.885C108.844 31.1754 108.84 32.4486 108.84 33.742V36.7073H109.978V29.6411H108.281C107.437 31.7907 106.359 34.3816 106.031 35.3147H106.029Z" fill="#EEF4FD"/>
<path d="M117.584 29.2303H116.473V36.7053H117.584V29.2303Z" fill="#EEF4FD"/>
<path d="M123.574 29.2303H122.459V32.2138C122.315 31.9851 121.906 31.4973 120.764 31.4973C119.461 31.4973 118.182 32.5356 118.182 34.2136C118.182 35.762 119.186 36.8449 120.639 36.8449C121.783 36.8449 122.197 36.3996 122.459 35.9786C122.463 36.2175 122.473 36.5049 122.499 36.7053H123.584C123.574 36.2215 123.574 35.7276 123.574 35.2439V29.2303ZM120.904 35.9381C119.866 35.9381 119.325 35.0921 119.325 34.1913C119.325 33.2906 119.85 32.402 120.932 32.402C122.117 32.402 122.499 33.1044 122.499 34.1589C122.499 35.2135 122.021 35.9381 120.906 35.9381H120.904Z" fill="#EEF4FD"/>
<path d="M126.571 33.7562C125.363 33.6003 125.104 33.3493 125.104 32.9263C125.104 32.6085 125.326 32.1571 126.353 32.1571C127.569 32.1571 127.782 32.7117 127.861 33.0336H128.626C128.579 32.4668 128.13 31.554 126.405 31.554C124.841 31.554 124.343 32.3737 124.343 32.989C124.343 33.6044 124.693 34.2055 126.411 34.41C127.763 34.5658 128.027 34.8937 128.027 35.3532C128.027 35.8633 127.642 36.2357 126.593 36.2357C125.62 36.2357 125.059 35.8572 124.863 35.1953H124.096C124.272 36.2155 125.059 36.845 126.547 36.845C128.035 36.845 128.788 36.1993 128.788 35.3026C128.788 34.5436 128.411 33.993 126.571 33.7562Z" fill="#EEF4FD"/>
<path d="M135.257 30.9446V31.6936H134.291V32.317H135.257V36.7073H136.012V32.317H137.224V31.6936H136.012V31.0094C136.012 30.0986 136.224 29.7788 136.941 29.7788C137.072 29.7788 137.283 29.797 137.43 29.8314V29.1736C137.303 29.1331 137.103 29.1169 136.854 29.1169C135.718 29.1169 135.257 29.8354 135.257 30.9467V30.9446Z" fill="#EEF4FD"/>
<path d="M139.753 32.315V31.6916H138.403V30.0399H139.154V29.287H138.401V30.0379H137.65V31.6916V32.315V35.3208C137.65 36.3106 137.954 36.7539 138.934 36.7539C139.199 36.7539 139.43 36.7478 139.642 36.6668V36.0879C139.494 36.1264 139.278 36.1345 139.13 36.1345C138.565 36.1345 138.403 35.8612 138.403 35.2439V32.313H139.753V32.315Z" fill="#EEF4FD"/>
<path d="M131.727 31.481C130.247 31.481 129.045 32.6854 129.045 34.165C129.045 35.6446 130.247 36.8489 131.727 36.8489C133.206 36.8489 134.411 35.6446 134.411 34.165C134.411 32.6854 133.209 31.481 131.727 31.481ZM131.727 36.1263C130.644 36.1263 129.766 35.2459 129.766 34.163C129.766 33.0801 130.646 32.1996 131.727 32.1996C132.808 32.1996 133.69 33.0801 133.69 34.163C133.69 35.2459 132.81 36.1263 131.727 36.1263Z" fill="#EEF4FD"/>
<path d="M113.211 31.4771C111.73 31.4771 110.523 32.6834 110.523 34.1651C110.523 35.6467 111.73 36.8531 113.211 36.8531C114.693 36.8531 115.899 35.6467 115.899 34.1651C115.899 32.6834 114.693 31.4771 113.211 31.4771ZM113.211 35.843C112.286 35.843 111.531 35.0901 111.531 34.163C111.531 33.236 112.284 32.483 113.211 32.483C114.138 32.483 114.891 33.236 114.891 34.163C114.891 35.0901 114.138 35.843 113.211 35.843Z" fill="#EEF4FD"/>
<path d="M21.031 4.9893C20.4153 4.56448 19.7041 4.28286 18.9404 4.17307C18.7017 4.13966 18.4583 4.12057 18.21 4.12057C17.9618 4.12057 17.7184 4.13966 17.4797 4.17307C16.2387 4.35446 15.1361 4.9893 14.3628 5.93918C14.2482 6.08238 14.2148 6.27808 14.2816 6.44514L14.9594 8.20648C15.1265 8.64085 15.747 8.64085 15.9141 8.20648C15.9475 8.12533 15.9809 8.04896 16.0143 7.97259C16.5012 6.98452 17.4463 6.62653 18.2053 6.62653C18.9642 6.62653 19.9141 6.98453 20.401 7.97737C20.4344 8.04896 20.4726 8.12533 20.5012 8.20648C20.6683 8.64562 21.284 8.64562 21.4559 8.20648L22.1337 6.44037C22.2005 6.26854 22.1671 6.07761 22.0525 5.93441C21.7566 5.56687 21.4081 5.24706 21.0215 4.98453L21.031 4.9893ZM32.6731 0.287632C32.4249 0.201713 32.1671 0.134888 31.8998 0.0871557C31.3031 -0.0226295 30.6635 -0.032176 30.0287 0.0871557C28.3914 0.378325 26.7781 1.46663 25.9571 3.6146L23.7041 9.48571L23.6945 9.51436L23.685 9.49526L22.3389 12.9893L22.3485 13.0179L21.3365 15.6575C21.284 15.7912 21.2268 15.9201 21.1647 16.0442C20.5871 17.1564 19.5704 17.6623 18.6492 17.7817C18.5012 17.8007 18.3532 17.8103 18.21 17.8103C18.0668 17.8103 17.9236 17.8007 17.7709 17.7817C16.8497 17.6623 15.833 17.1564 15.2506 16.0394C15.1886 15.9201 15.1313 15.7912 15.0788 15.6575L14.0668 13.0227L14.0764 12.9893L12.7303 9.49049L12.7208 9.50958L12.7112 9.48094L10.4582 3.60982C9.63247 1.46185 8.02388 0.373547 6.38664 0.0823777C5.7518 -0.0321807 5.11218 -0.0226341 4.51552 0.0823777C4.24822 0.13011 3.99523 0.201709 3.74225 0.282854C1.50358 1.05135 0 3.21842 0 5.81508V20.2065C0 23.0895 1.8568 25.4475 4.51552 25.9439C5.1074 26.0537 5.73748 26.0633 6.36755 25.9487C7.91886 25.6766 9.46063 24.6886 10.3198 22.7554C10.3676 22.6408 10.4153 22.5311 10.4582 22.4213L11.3604 20.0681V20.0585L10.4917 17.8055C10.3246 17.3711 9.70884 17.3711 9.537 17.8055L8.11457 21.5191C8.04297 21.7148 7.95705 21.8867 7.86636 22.049C7.14082 23.3425 5.93318 23.648 4.96898 23.4714C3.83294 23.2614 2.50597 22.2781 2.50597 20.2065V5.81508C2.50597 3.93441 3.59428 2.95111 4.6444 2.62653C4.75418 2.59312 4.86397 2.56448 4.96898 2.54539C5.13127 2.51675 5.30311 2.49765 5.47495 2.49765C6.35323 2.49765 7.3222 2.9177 7.92364 4.07283C7.99046 4.20648 8.05252 4.34968 8.10979 4.49765L11.3604 12.9702L11.3747 13.0084V13.0227H11.3699L12.716 16.5167L12.7303 16.5454C13.4368 18.3926 14.9785 19.7101 16.8306 20.1492C16.8353 20.1492 16.8401 20.154 16.8449 20.154C17.284 20.2542 17.7375 20.3115 18.2005 20.3115C18.6635 20.3115 19.117 20.259 19.5561 20.154C19.5609 20.154 19.5657 20.154 19.5704 20.1492C21.4272 19.7101 22.9642 18.3926 23.6707 16.5454L23.685 16.512V16.5215H23.6898L25.0358 13.0275V13.0084L25.0454 12.9702L28.296 4.49765C28.3533 4.34968 28.4153 4.21603 28.4774 4.08715C29.1934 2.68858 30.4487 2.35923 31.4368 2.54062C31.5418 2.55971 31.6516 2.58835 31.7614 2.62176C32.8115 2.94634 33.8998 3.92963 33.8998 5.8103V20.2017C33.8998 22.2781 32.5728 23.2566 31.4368 23.4666C30.4726 23.6432 29.2649 23.3377 28.5394 22.0394C28.4487 21.8771 28.3676 21.7053 28.2912 21.5144L26.8688 17.8008C26.7017 17.3664 26.0859 17.3616 25.9141 17.8008L25.0501 20.049V20.0585L25.9475 22.4117C25.9905 22.5263 26.0382 22.6361 26.0859 22.7411C26.9451 24.679 28.4821 25.6671 30.0382 25.9392C30.3437 25.9964 30.6492 26.0203 30.9499 26.0203C31.2697 26.0203 31.5895 25.9917 31.8903 25.9344C34.549 25.4428 36.4058 23.0848 36.4058 20.1969V5.80553C36.4058 3.20887 34.9022 1.03704 32.6635 0.273313L32.6731 0.287632Z" fill="#EEF4FD"/>
<path d="M54.1308 18.5501H54.107C53.6153 16.8317 51.0855 10.5596 48.9423 5.17062H44.9805V21.8341H47.5103V15.2422C47.5103 12.4212 47.4101 8.96537 47.2669 7.05129H47.2907C48.1977 9.80547 51.0282 16.9988 52.7561 21.8341H55.1619C57.4435 16.0107 60.0163 9.68614 60.8421 7.03697H60.8659C60.7705 8.78876 60.7609 11.7911 60.7609 14.8413V21.8341H63.4435V5.17062H59.4435C57.453 10.2398 54.9089 16.3496 54.1356 18.5501H54.1308Z" fill="#EEF4FD"/>
<path d="M81.3822 4.20639H78.7617V21.8341H81.3822V4.20639Z" fill="#EEF4FD"/>
<path d="M95.5051 4.20639H92.875V11.2422C92.5361 10.7028 91.5719 9.55245 88.8798 9.55245C85.8058 9.55245 82.7891 12.0011 82.7891 15.9582C82.7891 19.6097 85.1566 22.1634 88.5838 22.1634C91.2807 22.1634 92.2592 21.1133 92.875 20.1205C92.8845 20.6837 92.9084 21.3615 92.9705 21.8341H95.5289C95.5051 20.6933 95.5051 19.5286 95.5051 18.3878V4.20639ZM89.2091 20.0202C86.7604 20.0202 85.486 18.025 85.486 15.9009C85.486 13.7768 86.7222 11.6813 89.2759 11.6813C92.0683 11.6813 92.9705 13.3376 92.9705 15.8245C92.9705 18.3114 91.844 20.0202 89.2139 20.0202H89.2091Z" fill="#EEF4FD"/>
<path d="M71.0655 9.49997C67.5714 9.49997 64.7266 12.3448 64.7266 15.8389C64.7266 19.3329 67.5714 22.1778 71.0655 22.1778C74.5595 22.1778 77.4044 19.3329 77.4044 15.8389C77.4044 12.3448 74.5595 9.49997 71.0655 9.49997ZM71.0655 19.7959C68.8841 19.7959 67.1037 18.0203 67.1037 15.8341C67.1037 13.6479 68.8793 11.8723 71.0655 11.8723C73.2516 11.8723 75.0273 13.6479 75.0273 15.8341C75.0273 18.0203 73.2516 19.7959 71.0655 19.7959Z" fill="#EEF4FD"/>
<path d="M103.906 5.09897V21.8293H102.035V5.09897H103.906Z" fill="#EEF4FD"/>
<path d="M109.452 16.3926L107.285 21.8341H105.404L112.044 5.10379H114.316L121.242 21.8341H119.223L116.999 16.3926H109.457H109.452ZM116.454 14.8794C114.545 10.1682 113.538 7.80068 113.156 6.60737H113.127C112.679 7.94388 111.547 10.846 110.011 14.8794H116.454Z" fill="#EEF4FD"/>
<path d="M137.802 21.8341L132.565 14.5978H132.542L127.329 21.8341H125.205L131.434 13.3377L125.449 5.099H127.63L132.594 11.9582H132.623L137.692 5.099H139.802L133.673 13.1992L140.002 21.8341H137.802Z" fill="#EEF4FD"/>
</svg>
