<svg width="77" height="55" viewBox="0 0 77 55" fill="none" xmlns="http://www.w3.org/2000/svg">
<path d="M44.06 10.4526C42.77 9.56258 41.28 8.97259 39.68 8.74259C39.18 8.67259 38.67 8.63259 38.15 8.63259C37.63 8.63259 37.12 8.67259 36.62 8.74259C34.02 9.12259 31.71 10.4526 30.09 12.4426C29.85 12.7426 29.78 13.1526 29.92 13.5026L31.34 17.1926C31.69 18.1026 32.99 18.1026 33.34 17.1926C33.41 17.0226 33.48 16.8626 33.55 16.7026C34.57 14.6326 36.55 13.8826 38.14 13.8826C39.73 13.8826 41.72 14.6326 42.74 16.7126C42.81 16.8626 42.89 17.0226 42.95 17.1926C43.3 18.1126 44.59 18.1126 44.95 17.1926L46.37 13.4926C46.51 13.1326 46.44 12.7326 46.2 12.4326C45.58 11.6626 44.85 10.9926 44.04 10.4426L44.06 10.4526ZM68.45 0.602589C67.93 0.422589 67.39 0.282591 66.83 0.182591C65.58 -0.0474088 64.24 -0.0674088 62.91 0.182591C59.48 0.792591 56.1 3.07259 54.38 7.57259L49.66 19.8726L49.64 19.9326L49.62 19.8926L46.8 27.2126L46.82 27.2726L44.7 32.8026C44.59 33.0826 44.47 33.3526 44.34 33.6126C43.13 35.9426 41 37.0026 39.07 37.2526C38.76 37.2926 38.45 37.3126 38.15 37.3126C37.85 37.3126 37.55 37.2926 37.23 37.2526C35.3 37.0026 33.17 35.9426 31.95 33.6026C31.82 33.3526 31.7 33.0826 31.59 32.8026L29.47 27.2826L29.49 27.2126L26.67 19.8826L26.65 19.9226L26.63 19.8626L21.91 7.56258C20.18 3.06258 16.81 0.782581 13.38 0.172581C12.05 -0.0674185 10.71 -0.0474185 9.46 0.172581C8.9 0.272581 8.37 0.42258 7.84 0.59258C3.15 2.20258 0 6.74259 0 12.1826V42.3326C0 48.3726 3.89 53.3126 9.46 54.3526C10.7 54.5826 12.02 54.6026 13.34 54.3626C16.59 53.7926 19.82 51.7226 21.62 47.6726C21.72 47.4326 21.82 47.2026 21.91 46.9726L23.8 42.0426V42.0226L21.98 37.3026C21.63 36.3926 20.34 36.3926 19.98 37.3026L17 45.0826C16.85 45.4926 16.67 45.8526 16.48 46.1926C14.96 48.9026 12.43 49.5426 10.41 49.1726C8.03 48.7326 5.25 46.6726 5.25 42.3326V12.1826C5.25 8.24259 7.53 6.18258 9.73 5.50258C9.96 5.43258 10.19 5.37259 10.41 5.33259C10.75 5.27259 11.11 5.23258 11.47 5.23258C13.31 5.23258 15.34 6.11258 16.6 8.53258C16.74 8.81258 16.87 9.11258 16.99 9.42258L23.8 27.1726L23.83 27.2526V27.2826H23.82L26.64 34.6026L26.67 34.6626C28.15 38.5326 31.38 41.2926 35.26 42.2126C35.27 42.2126 35.28 42.2226 35.29 42.2226C36.21 42.4326 37.16 42.5526 38.13 42.5526C39.1 42.5526 40.05 42.4426 40.97 42.2226C40.98 42.2226 40.99 42.2226 41 42.2126C44.89 41.2926 48.11 38.5326 49.59 34.6626L49.62 34.5926V34.6126H49.63L52.45 27.2926V27.2526L52.47 27.1726L59.28 9.42258C59.4 9.11258 59.53 8.83258 59.66 8.56258C61.16 5.63258 63.79 4.94259 65.86 5.32259C66.08 5.36259 66.31 5.42259 66.54 5.49259C68.74 6.17259 71.02 8.23258 71.02 12.1726V42.3226C71.02 46.6726 68.24 48.7226 65.86 49.1626C63.84 49.5326 61.31 48.8926 59.79 46.1726C59.6 45.8326 59.43 45.4726 59.27 45.0726L56.29 37.2926C55.94 36.3826 54.65 36.3726 54.29 37.2926L52.48 42.0026V42.0226L54.36 46.9526C54.45 47.1926 54.55 47.4226 54.65 47.6426C56.45 51.7026 59.67 53.7726 62.93 54.3426C63.57 54.4626 64.21 54.5126 64.84 54.5126C65.51 54.5126 66.18 54.4526 66.81 54.3326C72.38 53.3026 76.27 48.3626 76.27 42.3126V12.1626C76.27 6.72259 73.12 2.17259 68.43 0.572591L68.45 0.602589Z" fill="#EEF4FD"/>
</svg>
