<svg width="224" height="524" viewBox="0 0 224 524" fill="none" xmlns="http://www.w3.org/2000/svg">
<path d="M298.981 100.436C287.446 91.8838 274.122 86.2147 259.815 84.0047C255.344 83.3321 250.784 82.9478 246.134 82.9478C241.484 82.9478 236.924 83.3321 232.453 84.0047C209.204 87.656 188.548 100.436 174.062 119.557C171.916 122.439 171.29 126.379 172.542 129.742L185.24 165.198C188.369 173.942 199.994 173.942 203.124 165.198C203.749 163.565 204.375 162.027 205.001 160.49C214.122 140.6 231.827 133.393 246.045 133.393C260.262 133.393 278.057 140.6 287.177 160.586C287.803 162.027 288.519 163.565 289.055 165.198C292.185 174.038 303.72 174.038 306.939 165.198L319.637 129.646C320.889 126.187 320.263 122.343 318.117 119.461C312.573 112.062 306.045 105.624 298.802 100.339L298.981 100.436ZM517.074 5.79009C512.424 4.06053 507.596 2.71533 502.588 1.75446C491.411 -0.455536 479.429 -0.64771 467.536 1.75446C436.865 7.61576 406.641 29.5235 391.261 72.7626L349.056 190.949L348.877 191.526L348.698 191.141L323.482 261.477L323.661 262.053L304.704 315.189C303.72 317.88 302.647 320.474 301.485 322.973C290.665 345.361 271.619 355.546 254.361 357.948C251.589 358.333 248.817 358.525 246.134 358.525C243.452 358.525 240.769 358.333 237.908 357.948C220.65 355.546 201.603 345.361 190.694 322.877C189.532 320.474 188.459 317.88 187.475 315.189L168.518 262.15L168.697 261.477L143.481 191.045L143.302 191.43L143.123 190.853L100.917 72.6664C85.4479 29.4274 55.3136 7.51958 24.6428 1.65828C12.7501 -0.647803 0.767926 -0.45563 -10.4095 1.65828C-15.4169 2.61915 -20.1562 4.06043 -24.8954 5.69391C-66.833 21.1639 -95 64.7874 -95 117.059V406.76C-95 464.797 -60.2159 512.264 -10.4095 522.257C0.678507 524.467 12.4818 524.659 24.2852 522.353C53.3464 516.876 82.2288 496.986 98.3242 458.071C99.2184 455.765 100.113 453.555 100.917 451.345L117.818 403.974V403.781L101.543 358.428C98.4137 349.685 86.8786 349.685 83.6595 358.428L57.0126 433.184C55.6713 437.124 54.0618 440.583 52.3628 443.85C38.7711 469.889 16.148 476.039 -1.91465 472.484C-23.1964 468.256 -48.0549 448.462 -48.0549 406.76V117.059C-48.0549 79.2004 -27.6674 59.4065 -7.99516 52.8726C-5.93851 52.2 -3.88187 51.6235 -1.91465 51.2391C1.1256 50.6626 4.34468 50.2782 7.56377 50.2782C24.0169 50.2782 42.169 58.7339 53.4358 81.9869C54.6877 84.6773 55.8501 87.5599 56.9232 90.5386L117.818 261.093L118.086 261.861V262.15H117.996L143.213 332.485L143.481 333.062C156.715 370.247 185.597 396.767 220.292 405.607C220.381 405.607 220.471 405.703 220.56 405.703C228.787 407.721 237.282 408.874 245.955 408.874C254.629 408.874 263.124 407.817 271.35 405.703C271.44 405.703 271.529 405.703 271.619 405.607C306.403 396.767 335.196 370.247 348.43 333.062L348.698 332.389V332.581H348.787L374.003 262.246V261.861L374.182 261.093L435.077 90.5386C436.15 87.5599 437.312 84.8695 438.475 82.2751C451.888 54.1217 475.405 47.4918 493.915 51.1431C495.882 51.5274 497.938 52.1039 499.995 52.7765C519.667 59.3104 540.055 79.1042 540.055 116.962V406.664C540.055 448.462 515.196 468.16 493.915 472.388C475.852 475.943 453.229 469.793 439.637 443.658C437.938 440.391 436.418 436.932 434.987 433.088L408.34 358.333C405.211 349.589 393.676 349.493 390.457 358.333L374.272 403.589V403.781L391.083 451.152C391.887 453.459 392.782 455.669 393.676 457.783C409.771 496.794 438.564 516.684 467.715 522.16C473.438 523.314 479.16 523.794 484.794 523.794C490.785 523.794 496.776 523.218 502.409 522.065C552.216 512.168 587 464.701 587 406.568V116.866C587 64.5952 558.833 20.8757 516.895 5.50184L517.074 5.79009Z" fill="url(#paint0_linear_9453_47030)" fill-opacity="0.25" style="mix-blend-mode:screen"/>
<defs>
<linearGradient id="paint0_linear_9453_47030" x1="-163.079" y1="518.047" x2="-243.127" y2="195.334" gradientUnits="userSpaceOnUse">
<stop offset="0.19" stop-color="#0F2C65"/>
<stop offset="0.755" stop-color="#0037A3"/>
</linearGradient>
</defs>
</svg>
