<svg width="294" height="78" viewBox="0 0 294 78" fill="none" xmlns="http://www.w3.org/2000/svg">
<path d="M222.129 73.9845H222.108C221.671 72.4579 219.424 66.8859 217.52 62.0984H214V76.902H216.247V71.0458C216.247 68.5397 216.158 65.4696 216.031 63.7691H216.052C216.858 66.2159 219.373 72.6063 220.908 76.902H223.045C225.072 71.7286 227.358 66.1099 228.091 63.7564H228.112C228.028 65.3127 228.019 67.98 228.019 70.6896V76.902H230.402V62.0984H226.849C225.08 66.6018 222.82 72.0296 222.133 73.9845H222.129Z" fill="#09326C"/>
<path d="M246.338 61.2375H244.01V76.8977H246.338V61.2375Z" fill="#09326C"/>
<path d="M258.886 61.2375H256.549V67.488C256.248 67.0089 255.392 65.9869 253 65.9869C250.269 65.9869 247.589 68.1623 247.589 71.6777C247.589 74.9216 249.692 77.1903 252.737 77.1903C255.133 77.1903 256.002 76.2574 256.549 75.3754C256.558 75.8758 256.579 76.4779 256.634 76.8977H258.907C258.886 75.8842 258.886 74.8496 258.886 73.8361V61.2375ZM253.292 75.2906C251.117 75.2906 249.985 73.518 249.985 71.631C249.985 69.744 251.083 67.8824 253.352 67.8824C255.833 67.8824 256.634 69.3539 256.634 71.5632C256.634 73.7725 255.633 75.2906 253.297 75.2906H253.292Z" fill="#09326C"/>
<path d="M265.166 70.7194C262.634 70.3929 262.092 69.867 262.092 68.9808C262.092 68.315 262.558 67.3694 264.708 67.3694C267.257 67.3694 267.702 68.5313 267.867 69.2055H269.47C269.373 68.0182 268.431 66.1057 264.818 66.1057C261.54 66.1057 260.497 67.8231 260.497 69.1122C260.497 70.4013 261.231 71.6608 264.831 72.0891C267.664 72.4156 268.215 73.1025 268.215 74.0651C268.215 75.1337 267.409 75.914 265.213 75.914C263.173 75.914 261.998 75.121 261.587 73.7344H259.98C260.349 75.8716 261.998 77.1904 265.115 77.1904C268.232 77.1904 269.809 75.8377 269.809 73.9591C269.809 72.3689 269.021 71.2155 265.166 70.7194Z" fill="#09326C"/>
<path d="M283.362 64.8292V66.3982H281.339V67.7042H283.362V76.9019H284.944V67.7042H287.484V66.3982H284.944V64.9649C284.944 63.0566 285.389 62.3866 286.89 62.3866C287.166 62.3866 287.607 62.4248 287.916 62.4969V61.1187C287.649 61.0339 287.229 61 286.708 61C284.329 61 283.362 62.5054 283.362 64.8334V64.8292Z" fill="#09326C"/>
<path d="M292.78 67.7V66.3939H289.952V62.9337H291.525V61.3562H289.947V62.9294H288.374V66.3939V67.7V73.9971C288.374 76.0707 289.01 76.9994 291.063 76.9994C291.618 76.9994 292.102 76.9867 292.547 76.8171V75.6043C292.237 75.6848 291.784 75.7018 291.474 75.7018C290.291 75.7018 289.952 75.1293 289.952 73.836V67.6957H292.78V67.7Z" fill="#09326C"/>
<path d="M275.966 65.9529C272.867 65.9529 270.348 68.476 270.348 71.5758C270.348 74.6756 272.867 77.1987 275.966 77.1987C279.066 77.1987 281.589 74.6756 281.589 71.5758C281.589 68.476 279.07 65.9529 275.966 65.9529ZM275.966 75.6848C273.698 75.6848 271.857 73.8402 271.857 71.5715C271.857 69.3029 273.702 67.4583 275.966 67.4583C278.231 67.4583 280.08 69.3029 280.08 71.5715C280.08 73.8402 278.235 75.6848 275.966 75.6848Z" fill="#09326C"/>
<path d="M237.174 65.9443C234.07 65.9443 231.543 68.4717 231.543 71.5757C231.543 74.6798 234.07 77.2071 237.174 77.2071C240.278 77.2071 242.806 74.6798 242.806 71.5757C242.806 68.4717 240.278 65.9443 237.174 65.9443ZM237.174 75.0911C235.236 75.0911 233.655 73.5136 233.655 71.5715C233.655 69.6293 235.232 68.0519 237.174 68.0519C239.116 68.0519 240.694 69.6293 240.694 71.5715C240.694 73.5136 239.116 75.0911 237.174 75.0911Z" fill="#09326C"/>
<path d="M44.06 10.4526C42.77 9.56258 41.28 8.97259 39.68 8.74259C39.18 8.67259 38.67 8.63259 38.15 8.63259C37.63 8.63259 37.12 8.67259 36.62 8.74259C34.02 9.12259 31.71 10.4526 30.09 12.4426C29.85 12.7426 29.78 13.1526 29.92 13.5026L31.34 17.1926C31.69 18.1026 32.99 18.1026 33.34 17.1926C33.41 17.0226 33.48 16.8626 33.55 16.7026C34.57 14.6326 36.55 13.8826 38.14 13.8826C39.73 13.8826 41.72 14.6326 42.74 16.7126C42.81 16.8626 42.89 17.0226 42.95 17.1926C43.3 18.1126 44.59 18.1126 44.95 17.1926L46.37 13.4926C46.51 13.1326 46.44 12.7326 46.2 12.4326C45.58 11.6626 44.85 10.9926 44.04 10.4426L44.06 10.4526ZM68.45 0.602589C67.93 0.422589 67.39 0.282591 66.83 0.182591C65.58 -0.0474088 64.24 -0.0674088 62.91 0.182591C59.48 0.792591 56.1 3.07259 54.38 7.57259L49.66 19.8726L49.64 19.9326L49.62 19.8926L46.8 27.2126L46.82 27.2726L44.7 32.8026C44.59 33.0826 44.47 33.3526 44.34 33.6126C43.13 35.9426 41 37.0026 39.07 37.2526C38.76 37.2926 38.45 37.3126 38.15 37.3126C37.85 37.3126 37.55 37.2926 37.23 37.2526C35.3 37.0026 33.17 35.9426 31.95 33.6026C31.82 33.3526 31.7 33.0826 31.59 32.8026L29.47 27.2826L29.49 27.2126L26.67 19.8826L26.65 19.9226L26.63 19.8626L21.91 7.56258C20.18 3.06258 16.81 0.782581 13.38 0.172581C12.05 -0.0674185 10.71 -0.0474185 9.46 0.172581C8.9 0.272581 8.37 0.42258 7.84 0.59258C3.15 2.20258 0 6.74259 0 12.1826V42.3326C0 48.3726 3.89 53.3126 9.46 54.3526C10.7 54.5826 12.02 54.6026 13.34 54.3626C16.59 53.7926 19.82 51.7226 21.62 47.6726C21.72 47.4326 21.82 47.2026 21.91 46.9726L23.8 42.0426V42.0226L21.98 37.3026C21.63 36.3926 20.34 36.3926 19.98 37.3026L17 45.0826C16.85 45.4926 16.67 45.8526 16.48 46.1926C14.96 48.9026 12.43 49.5426 10.41 49.1726C8.03 48.7326 5.25 46.6726 5.25 42.3326V12.1826C5.25 8.24259 7.53 6.18258 9.73 5.50258C9.96 5.43258 10.19 5.37259 10.41 5.33259C10.75 5.27259 11.11 5.23258 11.47 5.23258C13.31 5.23258 15.34 6.11258 16.6 8.53258C16.74 8.81258 16.87 9.11258 16.99 9.42258L23.8 27.1726L23.83 27.2526V27.2826H23.82L26.64 34.6026L26.67 34.6626C28.15 38.5326 31.38 41.2926 35.26 42.2126C35.27 42.2126 35.28 42.2226 35.29 42.2226C36.21 42.4326 37.16 42.5526 38.13 42.5526C39.1 42.5526 40.05 42.4426 40.97 42.2226C40.98 42.2226 40.99 42.2226 41 42.2126C44.89 41.2926 48.11 38.5326 49.59 34.6626L49.62 34.5926V34.6126H49.63L52.45 27.2926V27.2526L52.47 27.1726L59.28 9.42258C59.4 9.11258 59.53 8.83258 59.66 8.56258C61.16 5.63258 63.79 4.94259 65.86 5.32259C66.08 5.36259 66.31 5.42259 66.54 5.49259C68.74 6.17259 71.02 8.23258 71.02 12.1726V42.3226C71.02 46.6726 68.24 48.7226 65.86 49.1626C63.84 49.5326 61.31 48.8926 59.79 46.1726C59.6 45.8326 59.43 45.4726 59.27 45.0726L56.29 37.2926C55.94 36.3826 54.65 36.3726 54.29 37.2926L52.48 42.0026V42.0226L54.36 46.9526C54.45 47.1926 54.55 47.4226 54.65 47.6426C56.45 51.7026 59.67 53.7726 62.93 54.3426C63.57 54.4626 64.21 54.5126 64.84 54.5126C65.51 54.5126 66.18 54.4526 66.81 54.3326C72.38 53.3026 76.27 48.3626 76.27 42.3126V12.1626C76.27 6.72259 73.12 2.17259 68.43 0.572591L68.45 0.602589Z" fill="#09326C"/>
<path d="M113.4 38.8625H113.35C112.32 35.2625 107.02 22.1225 102.53 10.8325H94.23V45.7425H99.53V31.9325C99.53 26.0225 99.32 18.7825 99.02 14.7725H99.07C100.97 20.5425 106.9 35.6125 110.52 45.7425H115.56C120.34 33.5425 125.73 20.2925 127.46 14.7425H127.51C127.31 18.4125 127.29 24.7025 127.29 31.0925V45.7425H132.91V10.8325H124.53C120.36 21.4525 115.03 34.2525 113.41 38.8625H113.4Z" fill="#09326C"/>
<path d="M170.49 8.8125H165V45.7425H170.49V8.8125Z" fill="#09326C"/>
<path d="M200.08 8.8125H194.57V23.5525C193.86 22.4225 191.84 20.0125 186.2 20.0125C179.76 20.0125 173.44 25.1425 173.44 33.4325C173.44 41.0825 178.4 46.4325 185.58 46.4325C191.23 46.4325 193.28 44.2325 194.57 42.1525C194.59 43.3325 194.64 44.7525 194.77 45.7425H200.13C200.08 43.3525 200.08 40.9125 200.08 38.5225V8.8125ZM186.89 41.9425C181.76 41.9425 179.09 37.7625 179.09 33.3125C179.09 28.8625 181.68 24.4725 187.03 24.4725C192.88 24.4725 194.77 27.9425 194.77 33.1525C194.77 38.3625 192.41 41.9425 186.9 41.9425H186.89Z" fill="#09326C"/>
<path d="M148.88 19.9026C141.56 19.9026 135.6 25.8626 135.6 33.1826C135.6 40.5026 141.56 46.4626 148.88 46.4626C156.2 46.4626 162.16 40.5026 162.16 33.1826C162.16 25.8626 156.2 19.9026 148.88 19.9026ZM148.88 41.4726C144.31 41.4726 140.58 37.7526 140.58 33.1726C140.58 28.5926 144.3 24.8726 148.88 24.8726C153.46 24.8726 157.18 28.5926 157.18 33.1726C157.18 37.7526 153.46 41.4726 148.88 41.4726Z" fill="#09326C"/>
<path d="M217.68 10.6826V45.7326H213.76V10.6826H217.68Z" fill="#09326C"/>
<path d="M229.3 34.3426L224.76 45.7426H220.82L234.73 10.6926H239.49L254 45.7426H249.77L245.11 34.3426H229.31H229.3ZM243.97 31.1726C239.97 21.3026 237.86 16.3426 237.06 13.8426H237C236.06 16.6426 233.69 22.7226 230.47 31.1726H243.97Z" fill="#09326C"/>
<path d="M288.69 45.7426L277.72 30.5826H277.67L266.75 45.7426H262.3L275.35 27.9426L262.81 10.6826H267.38L277.78 25.0526H277.84L288.46 10.6826H292.88L280.04 27.6526L293.3 45.7426H288.69Z" fill="#09326C"/>
</svg>
