<svg width="38" height="8" viewBox="0 0 38 8" fill="none" xmlns="http://www.w3.org/2000/svg">
<path d="M4.2767 6.19773H4.26658C4.05809 5.46905 2.98532 2.80938 2.07649 0.52417H0.396484V7.59032H1.46926V4.79503C1.46926 3.59878 1.42675 2.13333 1.36603 1.32167H1.37615C1.76073 2.48957 2.96103 5.5399 3.69375 7.59032H4.7139C5.68143 5.12091 6.77242 2.43897 7.12259 1.31559H7.13271C7.09223 2.05844 7.08818 3.3316 7.08818 4.625V7.59032H8.22573V0.52417H6.52953C5.68547 2.67377 4.60663 5.26462 4.27872 6.19773H4.2767Z" fill="white"/>
<path d="M15.8319 0.113281H14.7207V7.5883H15.8319V0.113281Z" fill="white"/>
<path d="M21.8219 0.113281H20.7066V3.09681C20.5629 2.86809 20.154 2.38028 19.0124 2.38028C17.7089 2.38028 16.4297 3.41864 16.4297 5.09662C16.4297 6.64506 17.4336 7.72796 18.887 7.72796C20.0306 7.72796 20.4455 7.28266 20.7066 6.86164C20.7107 7.10049 20.7208 7.38791 20.7471 7.5883H21.832C21.8219 7.10454 21.8219 6.61065 21.8219 6.12689V0.113281ZM19.1521 6.82116C18.1137 6.82116 17.5733 5.97508 17.5733 5.07436C17.5733 4.17363 18.0976 3.28505 19.1804 3.28505C20.3646 3.28505 20.7471 3.98742 20.7471 5.04197C20.7471 6.09653 20.2694 6.82116 19.1541 6.82116H19.1521Z" fill="white"/>
<path d="M24.8192 4.63924C23.6108 4.48338 23.3518 4.23239 23.3518 3.80935C23.3518 3.49157 23.5744 3.04019 24.6006 3.04019C25.8171 3.04019 26.0296 3.5948 26.1086 3.91663H26.8737C26.8271 3.34988 26.3778 2.43701 24.6533 2.43701C23.0886 2.43701 22.5907 3.25677 22.5907 3.8721C22.5907 4.48743 22.9409 5.08859 24.6593 5.29302C26.0114 5.44888 26.2746 5.77678 26.2746 6.23625C26.2746 6.74633 25.89 7.11876 24.8415 7.11876C23.8679 7.11876 23.3072 6.74026 23.1109 6.07837H22.3438C22.5198 7.09852 23.3072 7.72802 24.7949 7.72802C26.2827 7.72802 27.0356 7.08233 27.0356 6.18565C27.0356 5.42661 26.6591 4.87606 24.8192 4.63924Z" fill="white"/>
<path d="M33.5046 1.82777V2.57668H32.5391V3.20011H33.5046V7.59039H34.2596V3.20011H35.472V2.57668H34.2596V1.89254C34.2596 0.98169 34.4721 0.661882 35.1886 0.661882C35.3202 0.661882 35.5307 0.680099 35.6785 0.714509V0.056675C35.5509 0.016193 35.3505 0 35.1016 0C33.9661 0 33.5046 0.718557 33.5046 1.82979V1.82777Z" fill="white"/>
<path d="M38.0015 3.19798V2.57456H36.6514V0.922888H37.4023V0.169922H36.6494V0.920864H35.8984V2.57456V3.19798V6.20377C35.8984 7.19356 36.2021 7.63684 37.1817 7.63684C37.4469 7.63684 37.6776 7.63077 37.8902 7.5498V6.97091C37.7424 7.00937 37.5258 7.01746 37.3781 7.01746C36.8133 7.01746 36.6514 6.74421 36.6514 6.12686V3.19596H38.0015V3.19798Z" fill="white"/>
<path d="M29.9749 2.36401C28.4953 2.36401 27.293 3.56836 27.293 5.04797C27.293 6.52759 28.4953 7.73194 29.9749 7.73194C31.4545 7.73194 32.6589 6.52759 32.6589 5.04797C32.6589 3.56836 31.4566 2.36401 29.9749 2.36401ZM29.9749 7.00933C28.892 7.00933 28.0136 6.12885 28.0136 5.04595C28.0136 3.96306 28.894 3.08257 29.9749 3.08257C31.0558 3.08257 31.9383 3.96306 31.9383 5.04595C31.9383 6.12885 31.0578 7.00933 29.9749 7.00933Z" fill="white"/>
<path d="M11.4595 2.36011C9.97785 2.36011 8.77148 3.56647 8.77148 5.04812C8.77148 6.52976 9.97785 7.73613 11.4595 7.73613C12.9411 7.73613 14.1475 6.52976 14.1475 5.04812C14.1475 3.56647 12.9411 2.36011 11.4595 2.36011ZM11.4595 6.7261C10.5345 6.7261 9.77949 5.97313 9.77949 5.04609C9.77949 4.11905 10.5325 3.36609 11.4595 3.36609C12.3865 3.36609 13.1395 4.11905 13.1395 5.04609C13.1395 5.97313 12.3865 6.7261 11.4595 6.7261Z" fill="white"/>
</svg>
