<svg width="64" height="46" viewBox="0 0 64 46" fill="none" xmlns="http://www.w3.org/2000/svg">
<path d="M36.9718 8.81686C35.8893 8.06613 34.639 7.56847 33.2964 7.37446C32.8769 7.31542 32.4489 7.28168 32.0126 7.28168C31.5762 7.28168 31.1483 7.31542 30.7287 7.37446C28.547 7.695 26.6086 8.81686 25.2492 10.4954C25.0479 10.7485 24.9891 11.0943 25.1066 11.3896L26.2982 14.5021C26.5918 15.2697 27.6827 15.2697 27.9764 14.5021C28.0351 14.3587 28.0939 14.2238 28.1526 14.0888C29.0085 12.3427 30.67 11.7101 32.0042 11.7101C33.3384 11.7101 35.0083 12.3427 35.8642 14.0972C35.9229 14.2238 35.99 14.3587 36.0404 14.5021C36.3341 15.2781 37.4165 15.2781 37.7186 14.5021L38.9102 11.3811C39.0277 11.0775 38.9689 10.7401 38.7675 10.487C38.2473 9.83751 37.6347 9.27236 36.955 8.80843L36.9718 8.81686ZM57.4381 0.50829C57.0017 0.356458 56.5486 0.238369 56.0787 0.154018C55.0298 -0.0399898 53.9053 -0.05686 52.7893 0.154018C49.9111 0.668559 47.0749 2.59176 45.6316 6.38756L41.6709 16.7627L41.6541 16.8133L41.6373 16.7796L39.271 22.9541L39.2878 23.0047L37.5088 27.6693C37.4165 27.9055 37.3158 28.1333 37.2068 28.3526C36.1914 30.3179 34.4041 31.2121 32.7846 31.4229C32.5245 31.4567 32.2643 31.4735 32.0126 31.4735C31.7608 31.4735 31.5091 31.4567 31.2406 31.4229C29.6211 31.2121 27.8337 30.3179 26.81 28.3441C26.7009 28.1332 26.6002 27.9055 26.5079 27.6693L24.729 23.0131L24.7458 22.9541L22.3794 16.7712L22.3627 16.8049L22.3459 16.7543L18.3852 6.37911C16.9335 2.58332 14.1057 0.660115 11.2275 0.145574C10.1114 -0.0568682 8.98702 -0.039998 7.93811 0.145574C7.4682 0.229925 7.02347 0.35645 6.57873 0.499847C2.64324 1.8579 0 5.68744 0 10.2761V35.708C0 40.8028 3.26419 44.9697 7.93811 45.847C8.97863 46.041 10.0863 46.0578 11.1939 45.8554C13.9211 45.3746 16.6314 43.6285 18.1419 40.2123C18.2258 40.0099 18.3097 39.8159 18.3852 39.6218L19.9712 35.4633V35.4465L18.444 31.4651C18.1503 30.6975 17.0678 30.6975 16.7657 31.4651L14.2651 38.0276C14.1392 38.3735 13.9882 38.6771 13.8288 38.9639C12.5533 41.2498 10.4303 41.7897 8.73528 41.4776C6.73817 41.1064 4.4054 39.3688 4.4054 35.708V10.2761C4.4054 6.95271 6.3186 5.21507 8.16468 4.64148C8.35768 4.58244 8.55067 4.53183 8.73528 4.49809C9.02058 4.44748 9.32267 4.41373 9.62475 4.41373C11.1687 4.41373 12.8722 5.15602 13.9295 7.19732C14.0469 7.4335 14.156 7.68655 14.2567 7.94804L19.9712 22.9204L19.9963 22.9878V23.0131H19.9879L22.3543 29.1876L22.3794 29.2382C23.6213 32.5026 26.3317 34.8307 29.5875 35.6067C29.5959 35.6067 29.6043 35.6152 29.6127 35.6152C30.3847 35.7923 31.1819 35.8935 31.9958 35.8935C32.8098 35.8935 33.6069 35.8007 34.3789 35.6152C34.3873 35.6152 34.3957 35.6152 34.4041 35.6067C37.6683 34.8307 40.3703 32.5026 41.6122 29.2382L41.6373 29.1792V29.1961H41.6457L44.0121 23.0216V22.9878L44.0288 22.9204L49.7433 7.94804C49.844 7.68655 49.9531 7.45037 50.0621 7.22262C51.3208 4.75114 53.5277 4.16913 55.2647 4.48966C55.4493 4.5234 55.6423 4.57401 55.8353 4.63305C57.6814 5.20664 59.5946 6.94427 59.5946 10.2677V35.6995C59.5946 39.3688 57.2618 41.098 55.2647 41.4691C53.5697 41.7812 51.4467 41.2414 50.1712 38.9471C50.0118 38.6603 49.8691 38.3566 49.7349 38.0192L47.2343 31.4567C46.9406 30.6891 45.8581 30.6806 45.556 31.4567L44.0372 35.4296V35.4465L45.6148 39.605C45.6903 39.8074 45.7742 40.0014 45.8581 40.187C47.3686 43.6117 50.0705 45.3577 52.8061 45.8385C53.3431 45.9397 53.8802 45.9819 54.4088 45.9819C54.971 45.9819 55.5332 45.9313 56.0619 45.8301C60.7358 44.9613 64 40.7943 64 35.6911V10.2593C64 5.67057 61.3568 1.8326 57.4213 0.482986L57.4381 0.50829Z" fill="white"/>
</svg>
